<svg width="24" height="24" fill="none" xmlns="http://www.w3.org/2000/svg"><g clip-path="url(#a)" filter="url(#b)"><path fill-rule="evenodd" clip-rule="evenodd" d="M18.67 8A6.67 6.67 0 1 1 5.33 8a6.67 6.67 0 0 1 13.34 0ZM12 16a8 8 0 1 0 0-16 8 8 0 0 0 0 16Zm0-5a3 3 0 1 0 0-6 3 3 0 0 0 0 6Z" fill="#2D3440"/></g><defs><clipPath id="a"><path fill="#fff" transform="translate(4)" d="M0 0h16v16H0z"/></clipPath><filter id="b" x="0" y="0" width="24" height="24" filterUnits="userSpaceOnUse" color-interpolation-filters="sRGB"><feFlood flood-opacity="0" result="BackgroundImageFix"/><feColorMatrix in="SourceAlpha" values="0 0 0 0 0 0 0 0 0 0 0 0 0 0 0 0 0 0 127 0" result="hardAlpha"/><feOffset dy="4"/><feGaussianBlur stdDeviation="2"/><feComposite in2="hardAlpha" operator="out"/><feColorMatrix values="0 0 0 0 0 0 0 0 0 0 0 0 0 0 0 0 0 0 0.25 0"/><feBlend in2="BackgroundImageFix" result="effect1_dropShadow_1_619"/><feBlend in="SourceGraphic" in2="effect1_dropShadow_1_619" result="shape"/></filter></defs></svg>